<?xml version="1.0" encoding="utf-8"?>
<!-- Generator: Adobe Illustrator 17.0.0, SVG Export Plug-In . SVG Version: 6.00 Build 0)  -->
<!DOCTYPE svg PUBLIC "-//W3C//DTD SVG 1.1//EN" "http://www.w3.org/Graphics/SVG/1.1/DTD/svg11.dtd">
<svg version="1.1" id="Layer_1" xmlns="http://www.w3.org/2000/svg" xmlns:xlink="http://www.w3.org/1999/xlink" x="0px" y="0px"
	 width="3000px" height="616px" viewBox="0 0 3000 616" enable-background="new 0 0 3000 616" xml:space="preserve">
<rect id="I" x="26.039" y="32.152" width="134.423" height="547.546"/>
<path id="n" d="M432.9,184.938c-1.203-0.02-2.394-0.087-3.574-0.063c-87.389,1.799-113.698,58.562-113.698,58.562l0.041,0.215
	l-22.208-47.951h-89.083v383.996h134.423V355.183c0.497-3.105,1.311-6.923,2.653-10.83c5.849-17.035,20.791-41.438,58.431-41.907
	c0.392-0.005,0.782,0.007,1.169,0.024c59.293,2.692,58.935,62.228,58.935,62.228v214.999h134.423V362.346
	C594.412,362.346,605.882,187.855,432.9,184.938z"/>
<path id="d" d="M899.878,23.908v205.794c-14.746-13.296-24.967-24.288-38.889-31.118c-60.676-29.766-148.268-6.377-191.198,52.527
	c-45.867,62.936-51.537,133.647-33.124,206.224c25.371,100.004,121.837,152.51,220.638,123.307
	c16.69-4.933,28.633-12.611,42.573-24.982c11.811-10.482,23.173-23.697,23.173-23.697l22.168,47.735h89.083V23.907L899.878,23.908
	L899.878,23.908z M832.854,479.602c-31.407-1.889-51.431-19.736-63.267-47.82c-6.753-16.025-8.136-33.018-8.087-50.13
	c0.637-20.998,5.636-40.591,18.002-57.882c29.124-40.723,94.18-36.541,116.389,8.35c16.597,33.548,17.464,68.607,2.299,103.199
	C885.468,464.337,860.496,481.263,832.854,479.602z"/>
<g id="i_2_">
	<rect id="i_1_" x="1072.998" y="193.164" width="134.423" height="386.534"/>
	<ellipse fill="#0A5CA6" cx="1143.35" cy="93.702" rx="67.211" ry="62.446"/>
</g>
<path id="e" d="M1450.474,185.707c-0.765-0.03-1.532-0.097-2.303-0.082c-160.527,3.229-200.835,124.905-201.737,200.599
	c-0.01,0.876-0.041,1.746-0.015,2.61c1.47,48.341,13.069,84.686,31.096,111.857c42.792,64.494,98.437,89.913,179.844,91.352
	c103.374,1.826,152.08-47.037,152.08-47.037l-47.402-85.787c0,0-46.59,29.783-99.956,27.307c-0.575-0.027-1.147-0.003-1.715-0.01
	c-80.583-0.96-86.39-72.123-86.39-72.123l251.715-0.02C1625.692,414.374,1655.075,193.721,1450.474,185.707z M1377.326,342.893
	c0,0,1.57-60.594,61.06-60.594c0.96,0,1.905,0.016,2.835,0.047c56.655,1.893,56.655,60.547,56.655,60.547H1377.326z"/>
<polygon id="W" fill="#0A5CA6" points="2225.336,23.908 2085.512,483.755 1959.725,32.152 1955.585,32.152 1912.014,32.152 
	1907.873,32.152 1782.087,483.755 1642.262,23.908 1586.307,23.908 1755.304,579.697 1755.363,579.697 1811.259,579.697 
	1811.319,579.697 1933.799,139.964 2056.28,579.697 2056.339,579.697 2112.235,579.697 2112.295,579.697 2281.292,23.908 "/>
<g id="i_3_">
	<rect id="i_4_" x="2318.251" y="192.062" fill="#0A5CA6" width="55.955" height="387.636"/>
	<ellipse fill="#0A5CA6" cx="2346.136" cy="114.876" rx="32.986" ry="32.549"/>
</g>
<path id="r" fill="#0A5CA6" d="M2544.53,207.392c-0.311,0.151-0.629,0.287-0.944,0.432c-22.101,10.189-46.846,41.785-51.48,47.875
	l-10.749-63.638h-39.419v387.636h55.954V332.144c1.97-12.656,10.979-52.5,48.323-77.141c0.271-0.179,0.531-0.374,0.799-0.557
	c29.574-20.309,76.321-16.719,76.321-16.719v-43.584C2623.336,194.142,2583.32,188.548,2544.53,207.392z"/>
<path id="e_1_" fill="#0A5CA6" d="M2810.696,185.707c-0.765-0.035-1.532-0.099-2.303-0.082
	c-147.089,3.377-181.767,121.102-181.754,200.633c0,0.876-0.041,1.746-0.015,2.61c1.47,48.341,11.712,88.743,29.104,116.325
	c43.35,68.751,107.066,83.635,164.087,84.716c81.922,1.553,137.482-44.904,137.482-44.904l-20.343-40.489
	c0,0-61.915,40.124-115.281,37.648c-0.574-0.027-1.147,0.007-1.715-0.01c-145.843-4.452-139.342-152.492-139.342-152.492
	l292.933-0.02C2973.548,389.642,2990.269,193.977,2810.696,185.707z M2683.914,346.454c0,0,12.209-115.382,115.998-115.406
	c0.96,0,1.905,0.031,2.835,0.047c116.223,2.013,114.451,115.359,114.451,115.359H2683.914z"/>
</svg>
