<?xml version="1.0" ?><!DOCTYPE svg  PUBLIC '-//W3C//DTD SVG 1.1//EN'  'http://www.w3.org/Graphics/SVG/1.1/DTD/svg11.dtd'><svg enable-background="new 0 0 512 512" height="512px" id="Layer_1" version="1.1" viewBox="0 0 512 512" width="512px" xml:space="preserve" xmlns="http://www.w3.org/2000/svg" xmlns:xlink="http://www.w3.org/1999/xlink"><g><path clip-rule="evenodd" d="M138.2,205.044c28.127,0,51.111,22.982,51.111,51.11   c0,28.133-22.983,50.801-51.111,50.801c-28.117,0-51.11-22.668-51.11-50.801C87.09,228.026,110.084,205.044,138.2,205.044   L138.2,205.044z M256.146,306.955c-28.127,0-51.11-22.668-51.11-50.801c0-28.127,22.983-51.11,51.11-51.11   s50.809,22.982,50.809,51.11C306.954,284.287,284.273,306.955,256.146,306.955L256.146,306.955z M205.036,374.107   c0-28.431,22.983-51.121,51.11-51.121s50.809,22.69,50.809,51.121c0,28.117-22.682,50.807-50.809,50.807   S205.036,402.224,205.036,374.107L205.036,374.107z M25.701,512h460.89c13.912,0,25.409-11.48,25.409-25.403V25.706   C512,11.491,500.503,0,486.591,0H25.701C11.486,0,0,11.491,0,25.706v460.891C0,500.519,11.486,512,25.701,512L25.701,512z    M205.036,138.206c0-28.123,22.983-51.11,51.11-51.11s50.809,22.987,50.809,51.11c0,28.127-22.682,51.109-50.809,51.109   S205.036,166.333,205.036,138.206L205.036,138.206z M374.092,306.955c-28.43,0-51.11-22.668-51.11-50.801   c0-28.127,22.681-51.11,51.11-51.11c28.127,0,50.809,22.982,50.809,51.11C424.901,284.287,402.219,306.955,374.092,306.955   L374.092,306.955z M374.092,322.986c28.127,0,50.809,22.69,50.809,51.121c0,28.117-22.682,50.807-50.809,50.807   c-28.43,0-51.11-22.689-51.11-50.807C322.982,345.677,345.662,322.986,374.092,322.986L374.092,322.986z M322.982,138.206   c0-28.123,22.681-51.11,51.11-51.11c28.127,0,50.809,22.987,50.809,51.11c0,28.127-22.682,51.109-50.809,51.109   C345.662,189.315,322.982,166.333,322.982,138.206L322.982,138.206z" fill="#040404" fill-rule="evenodd"/></g></svg>