<svg width="16" height="16" viewBox="0 0 16 16" fill="none" xmlns="http://www.w3.org/2000/svg">
<g clip-path="url(#clip0_514_149)">
<path fill-rule="evenodd" clip-rule="evenodd" d="M11.0326 6.18468C11.2286 6.037 11.5073 6.07622 11.655 6.27228L12.4 7.26132L13.145 6.27228C13.2927 6.07622 13.5713 6.037 13.7674 6.18468C13.9635 6.33237 14.0027 6.61103 13.855 6.80709L12.9564 8.00002L13.855 9.19295C14.0027 9.38901 13.9635 9.66767 13.7674 9.81535C13.5713 9.96304 13.2927 9.92382 13.145 9.72776L12.4 8.73871L11.655 9.72776C11.5073 9.92382 11.2286 9.96304 11.0326 9.81535C10.8365 9.66767 10.7973 9.38901 10.945 9.19295L11.8436 8.00002L10.945 6.80709C10.7973 6.61103 10.8365 6.33237 11.0326 6.18468ZM3.59999 7.06013C3.23869 7.06013 2.94443 7.35423 2.94443 7.71568V9.46035C2.94443 9.70581 2.74545 9.9048 2.49999 9.9048C2.25453 9.9048 2.05554 9.70581 2.05554 9.46035V7.71568C2.05554 6.86314 2.74795 6.17124 3.59999 6.17124C4.45203 6.17124 5.14443 6.86314 5.14443 7.71568V9.46035C5.14443 9.70581 4.94545 9.9048 4.69999 9.9048C4.45453 9.9048 4.25554 9.70581 4.25554 9.46035V7.71568C4.25554 7.35423 3.96128 7.06013 3.59999 7.06013Z" fill="#4980EB"/>
<path fill-rule="evenodd" clip-rule="evenodd" d="M9.06206 6.9841C8.70085 6.9841 8.4065 7.27845 8.4065 7.63966V8.36033C8.4065 8.72153 8.70085 9.01588 9.06206 9.01588C9.42327 9.01588 9.71761 8.72153 9.71761 8.36033V7.63966C9.71761 7.27845 9.42327 6.9841 9.06206 6.9841ZM9.79942 6.28264C9.58023 6.16315 9.32898 6.09521 9.06206 6.09521C8.20993 6.09521 7.51762 6.78753 7.51762 7.63966V8.36033C7.51762 9.21245 8.20993 9.90477 9.06206 9.90477C9.32898 9.90477 9.58023 9.83684 9.79942 9.71734C9.87996 9.83076 10.0124 9.90477 10.1621 9.90477C10.4075 9.90477 10.6065 9.70579 10.6065 9.46033V6.53966C10.6065 6.2942 10.4075 6.09521 10.1621 6.09521C10.0124 6.09521 9.87996 6.16922 9.79942 6.28264ZM5.80006 7.0601C5.43876 7.0601 5.1445 7.35421 5.1445 7.71566C5.1445 7.96112 4.94552 8.1601 4.70006 8.1601C4.4546 8.1601 4.25562 7.96112 4.25562 7.71566C4.25562 6.86311 4.94802 6.17122 5.80006 6.17122C6.6521 6.17122 7.3445 6.86311 7.3445 7.71566V9.46033C7.3445 9.70579 7.14552 9.90477 6.90006 9.90477C6.6546 9.90477 6.45562 9.70579 6.45562 9.46033V7.71566C6.45562 7.35421 6.16135 7.0601 5.80006 7.0601ZM9.06206 7.22221C9.30752 7.22221 9.5065 7.4212 9.5065 7.66666V8.33333C9.5065 8.57879 9.30752 8.77777 9.06206 8.77777C8.8166 8.77777 8.61762 8.57879 8.61762 8.33333V7.66666C8.61762 7.4212 8.8166 7.22221 9.06206 7.22221Z" fill="#4980EB"/>
<path fill-rule="evenodd" clip-rule="evenodd" d="M8.00003 1.2778C4.28745 1.2778 1.2778 4.28745 1.2778 8.00003C1.2778 11.7126 4.28745 14.7222 8.00003 14.7222C11.7126 14.7222 14.7222 11.7126 14.7222 8.00003C14.7222 4.28745 11.7126 1.2778 8.00003 1.2778ZM0.388916 8.00003C0.388916 3.79653 3.79653 0.388916 8.00003 0.388916C12.2035 0.388916 15.6111 3.79653 15.6111 8.00003C15.6111 12.2035 12.2035 15.6111 8.00003 15.6111C3.79653 15.6111 0.388916 12.2035 0.388916 8.00003Z" fill="#4980EB"/>
</g>
<defs>
<clipPath id="clip0_514_149">
<rect width="16" height="16" fill="white"/>
</clipPath>
</defs>
</svg>
