<?xml version="1.0" encoding="UTF-8" standalone="no"?>
<svg
   xmlns:dc="http://purl.org/dc/elements/1.1/"
   xmlns:cc="http://creativecommons.org/ns#"
   xmlns:rdf="http://www.w3.org/1999/02/22-rdf-syntax-ns#"
   xmlns:svg="http://www.w3.org/2000/svg"
   xmlns="http://www.w3.org/2000/svg"
   viewBox="0 0 3291.5513 1013.2333"
   height="1013.2333"
   width="3291.5513"
   id="svg214"
   version="1.1">
  <metadata
     id="metadata220">
    <rdf:RDF>
      <cc:Work
         rdf:about="">
        <dc:format>image/svg+xml</dc:format>
        <dc:type
           rdf:resource="http://purl.org/dc/dcmitype/StillImage" />
        <dc:title></dc:title>
      </cc:Work>
    </rdf:RDF>
  </metadata>
  <defs
     id="defs218" />
  <g
     transform="translate(334.26127,-568.61147)"
     id="g222">
    <path
       id="path230"
       d="m -165.71048,1581.6776 c -53.12555,-1.5171 -87.58456,-7.5472 -112.96001,-19.7671 -32.32005,-15.5642 -49.39479,-42.1557 -54.05233,-84.179 -1.06702,-9.6274 -1.22228,-13.8072 -1.37582,-37.04 l -0.15808,-23.92 h 75.55312 75.55311 l 0.003,0.88 c 0.002,0.484 0.14957,3.328 0.32858,6.32 1.79922,30.0717 11.52026,43.1977 34.84597,47.0513 9.77248,1.6145 5.11083,1.5484 117.782359,1.671 107.8058,0.1172 112.44702,0.077 121.44001,-1.0633 24.346881,-3.0863 36.858981,-12.9083 40.062431,-31.4491 1.148,-6.6443 0.51491,-19.596 -1.23504,-25.2669 -5.23571,-16.9669 -23.3889,-23.4695 -73.387391,-26.2879 -22.84551,-1.2878 -41.92448,-1.6176 -112.00001,-1.9357 -69.062199,-0.3134 -85.377979,-0.5985 -110.719999,-1.9342 -93.61491,-4.9342 -135.7889,-20.45 -153.91491,-56.6252 -6.48043,-12.9334 -10.08036,-27.4488 -11.99737,-48.3747 -2.16476,-23.6304 -2.01244,-64.2697 0.32198,-85.9093 5.4774,-50.7741 27.95452,-79.1295 75.56629,-95.3285 24.19641,-8.2324 53.34744,-12.7265 94.82411,-14.6188 12.923,-0.5895 250.791359,-0.5929 263.36,0 50.44749,2.365 83.57809,8.9452 108.95047,21.639 20.10301,10.0576 33.31626,22.8773 42.25456,40.996 6.35808,12.8884 9.93264,26.6009 11.80883,45.3 1.00484,10.0146 1.2946,16.61 1.521,34.62 l 0.20816,16.56 h -75.53713 -75.53709 l -0.20688,-5.68 c -0.26342,-7.2318 -0.70336,-11.9014 -1.49392,-15.8567 -3.54364,-17.7296 -15.896601,-25.219 -46.048001,-27.9182 -11.00483,-0.9851 -29.00237,-1.1448 -115.84,-1.0279 -79.159629,0.1065 -86.285089,0.1594 -90.559999,0.6717 -12.92556,1.5489 -23.2195,4.881 -30.01894,9.7169 -10.22814,7.2746 -14.67892,17.2398 -13.9769,31.2942 0.54232,10.8573 2.43275,17.255 6.56616,22.2218 8.23509,9.8955 26.26723,14.3845 64.30968,16.0096 4.312,0.1842 8.992,0.4013 10.4,0.4825 1.407999,0.081 39.279999,0.2828 84.159999,0.4482 87.04359,0.3207 101.99872,0.5639 131.040001,2.1307 65.23572,3.5197 103.94573,12.3696 129.12001,29.5195 24.86265,16.9376 37.80278,43.1468 42.05933,85.1877 1.32534,13.0904 1.45635,16.5678 1.45852,38.72 0.003,22.2005 -0.15241,26.3644 -1.46166,39.36 -5.03162,49.9439 -22.56381,77.6489 -59.03242,93.2853 -29.46313,12.6327 -70.56538,18.3727 -143.183781,19.996 -11.81395,0.264 -239.859269,0.3602 -248.799999,0.1048 z m 659.20002,0 c -24.59617,-0.8686 -43.16401,-2.572 -60.80001,-5.5777 -71.22192,-12.1385 -110.9776,-45.5289 -126.07859,-105.8922 -4.18304,-16.7211 -6.17127,-32.5801 -6.90023,-55.04 -0.48262,-14.8699 -0.22537,-168.0829 0.29389,-175.04 0.60679,-8.13 1.32736,-15.5498 1.98887,-20.48 4.41939,-32.9373 14.3374,-58.6761 30.41699,-78.9367 6.2792,-7.912 16.50483,-17.4332 25.23907,-23.5006 25.81101,-17.93 62.00551,-28.4746 110.24,-32.1166 22.71613,-1.7151 34.49463,-1.8278 174.72001,-1.6719 84.26867,0.094 126.31907,0.2513 130.87997,0.4904 23.2573,1.2193 38.7764,2.7537 53.7515,5.3148 42.0113,7.1848 72.2251,21.1481 93.5893,43.2523 21.4011,22.1425 33.9885,52.6568 38.4027,93.0962 1.4818,13.5752 1.4565,11.707 1.4565,107.6721 0,99.2021 0.083,94.059 -1.7761,109.44 -8.6639,71.6583 -43.4764,112.2706 -110.657,129.0924 -20.2507,5.0707 -38.0032,7.4934 -69.8069,9.5266 -4.3869,0.2805 -41.7197,0.3892 -144.15997,0.4199 -76.032,0.023 -139.392,0 -140.8,-0.049 z m 237.75997,-125.2283 c 14.9934,-0.6683 24.673,-2.1964 34.465,-5.4408 24.0588,-7.9714 35.8687,-25.0164 39.9071,-57.5969 1.4291,-11.5294 1.4679,-13.1005 1.4679,-59.36 0,-47.1113 -0.018,-47.7448 -1.6273,-59.04 -1.6505,-11.5803 -4.3782,-20.918 -8.5022,-29.1051 -3.0854,-6.1253 -5.7795,-9.9476 -10.3487,-14.6821 -11.9951,-12.4291 -28.0837,-18.8864 -54.0818,-21.7061 -4.7128,-0.5111 -12.4996,-0.5644 -97.91997,-0.6702 -93.96327,-0.1163 -99.46477,-0.064 -109.6,1.0504 -26.11674,2.8704 -44.50404,11.6268 -55.61981,26.4871 -9.38244,12.5431 -13.8697,27.4994 -15.81312,52.706 -0.57917,7.5119 -0.57642,81.1054 0.003,89.92 1.80291,27.4103 6.4631,43.5441 15.99657,55.3808 11.11175,13.7964 29.63936,20.7592 58.633,22.0348 8.47984,0.3731 194.71143,0.3934 203.04003,0.022 z m 425.59999,125.0946 c -42.6002,-2.0894 -77.7576,-10.643 -104.2565,-25.3651 -19.7604,-10.9783 -35.0765,-24.9749 -46.7472,-42.7198 -4.0816,-6.2059 -5.6336,-8.9273 -9.03209,-15.8377 -9.7037,-19.7308 -15.621,-43.1053 -17.8749,-70.6097 -1.064,-12.9841 -1.1253,-22.9217 -1.1273,-182.96 l -0.002,-160.0801 h 74.87539 74.8754 l 0.092,149.84 c 0.086,140.0124 0.1291,150.1443 0.6491,154.48 2.364,19.7095 6.4679,32.0408 14.1056,42.3836 2.5789,3.4922 7.7213,8.514 11.4063,11.1386 3.3385,2.3778 10.472,6.0716 14.7157,7.6199 3.6915,1.3468 11.4577,3.2994 16.32,4.1032 11.1056,1.8358 6.8298,1.7514 95.2,1.8779 56.2623,0.081 83.2272,0.01 87.6061,-0.2342 17.2886,-0.9581 29.2291,-3.6282 39.754,-8.8898 11.3212,-5.6598 19.1759,-13.7165 24.7896,-25.4274 5.5608,-11.6004 8.2546,-25.2234 8.9719,-45.3718 0.1755,-4.9311 0.3053,-67.7066 0.3102,-150 l 0.01,-141.52 h 74.727 74.7271 l -0.1111,166.64 c -0.083,123.975 -0.2072,167.746 -0.4864,170.96 -0.9206,10.5967 -1.4268,15.3116 -2.302,21.44 -6.5304,45.7279 -24.9109,79.7425 -55.4311,102.5799 -28.9217,21.6413 -68.9315,33.4849 -121.5235,35.9729 -8.1728,0.3866 -246.3307,0.3674 -254.2401,-0.02 z m 451.3601,-251.3328 v -246.2404 l 117.1684,0.08 117.1685,0.081 141.681,178.72 c 96.7646,122.0613 141.8936,178.7524 142.3515,178.8223 l 0.6706,0.1022 v -178.9023 -178.9022 h 75.52 75.52 v 246.24 246.24 h -117.0751 -117.0752 l -141.746,-178.8 c -101.021,-127.4291 -141.9468,-178.8294 -142.4449,-178.9023 l -0.6988,-0.1022 v 178.9022 178.9023 h -75.52 -75.52 z m 689.28,0 v -246.24 h 234 c 147.7654,0 237.243,0.1196 242.8,0.3191 86.1857,3.0941 136.152,24.2893 161.7334,68.6057 12.3645,21.4192 19.1972,48.7656 20.9965,84.0321 0.4976,9.7525 0.2503,187.3449 -0.2688,192.96 -1.4099,15.2544 -2.3011,22.0486 -4.0733,31.0501 -7.518,38.1916 -24.1952,65.4655 -51.1878,83.7132 -28.3325,19.1536 -67.8158,29.1373 -124.48,31.4759 -4.8947,0.202 -93.2411,0.3177 -243.6,0.3189 h -235.92 v -246.2376 z m 431.52,119.5151 c 19.9379,-0.9845 32.9501,-3.7208 44.16,-9.2864 5.6073,-2.784 9.6339,-5.6415 13.7506,-9.7581 9.1095,-9.1095 14.572,-21.3908 17.4314,-39.1906 1.7511,-10.9004 1.7268,-10.1229 1.8604,-59.52 0.1295,-47.8378 0.045,-52.1271 -1.2324,-62.56 -3.4297,-28.013 -13.7865,-44.9765 -33.023,-54.0889 -6.5925,-3.1229 -15.7295,-5.6462 -25.507,-7.044 -11.3735,-1.626 -3.857,-1.546 -155.44,-1.655 l -142.48,-0.1025 v 121.7652 121.7652 h 137.04 c 85.6119,0 139.4418,-0.123 143.44,-0.3205 z M 671.08951,1071.7857 c -88.09623,-2.7308 -139.64247,-22.9569 -168.41322,-66.0832 -14.27837,-21.40284 -22.75389,-48.71849 -25.8065,-83.17138 -1.11373,-12.57034 -1.18586,-19.85539 -1.06429,-107.52 0.12839,-92.59306 0.0653,-88.76007 1.7,-103.36 5.27018,-47.06954 21.43661,-80.81002 49.58404,-103.48498 27.63369,-22.26113 66.99574,-34.50148 123.04,-38.26154 19.16567,-1.28584 20.04267,-1.29313 155.67997,-1.29313 135.9652,0 136.4034,0.004 154.88,1.30152 37.9423,2.66513 68.07339,9.41548 90.67399,20.31395 33.1036,15.96324 51.6892,40.79432 59.3876,79.34453 3.0336,15.19093 4.1878,29.53397 4.5477,56.51536 l 0.2151,16.12464 h -74.2422 -74.24219 l -0.2066,-4.72 c -0.7241,-16.54404 -4.6818,-27.64938 -12.6946,-35.62108 -7.9259,-7.88523 -19.2715,-12.09441 -37.4388,-13.88969 -9.9288,-0.98116 -23.2197,-1.11917 -107.68,-1.11815 -95.5315,10e-4 -101.4834,0.10059 -116,1.93797 -27.34106,3.4606 -43.1497,13.11077 -52.0001,31.74275 -5.09872,10.73384 -7.89529,23.79142 -9.50678,44.3882 -0.59674,7.62746 -0.59415,103.14284 0.003,110.72 1.68905,21.4311 4.54301,34.38384 10.00537,45.4096 2.77421,5.59978 5.39866,9.29056 9.5785,13.4704 4.1719,4.1719 7.90826,6.8328 13.28,9.4575 10.51981,5.14013 22.41851,7.75348 41.76001,9.17184 8.3099,0.60938 192.4605,0.59754 199.84,-0.0128 12.1937,-1.00864 20.7094,-2.5991 28.6567,-5.35219 7.8828,-2.73075 13.9476,-6.40755 19.215,-11.64921 6.6198,-6.58749 10.1794,-13.74948 12.1743,-24.49511 0.5504,-2.96496 0.6796,-5.29862 0.8195,-14.8 l 0.1662,-11.28 h -93.9559 -93.9558 v -51.04 -51.04 h 169.4525 169.45259 l -0.1223,79.28 c -0.087,56.14055 -0.23,80.54087 -0.491,83.6 -1.1504,13.48234 -2.2953,22.15325 -4.0443,30.62851 -10.784,52.25719 -40.306,78.05139 -100.9675,88.21819 -20.17439,3.3812 -41.34699,5.1192 -76.95999,6.3174 -13.1019,0.4408 -250.9094,0.6661 -264.32,0.2504 z m -835.03999,-2.749 c -74.1754,-1.7614 -116.75098,-13.3811 -141.54003,-38.6291 -6.08546,-6.1981 -10.97008,-13.1421 -15.21951,-21.6361 -7.20898,-14.40979 -10.89908,-29.45913 -12.86808,-52.48003 -0.18817,-2.2 -0.41886,-14.836 -0.51265,-28.08 l -0.17052,-24.08 h 75.55539 75.55539 v 0.81235 c 0,0.44682 0.15047,3.29082 0.33438,6.32 1.87133,30.82317 11.92621,43.80637 36.71813,47.41168 8.57107,1.24647 7.51157,1.23386 114.947499,1.36717 106.48586,0.1321 112.82867,0.0777 121.96579,-1.04682 24.634411,-3.03168 37.135211,-12.7166 40.457641,-31.34438 0.76685,-4.29939 0.76349,-14.8056 -0.006,-19.84 -2.18512,-14.2895 -9.9161,-21.53222 -27.83533,-26.07733 -15.690341,-3.97976 -36.903811,-5.86556 -79.381731,-7.05675 -6.336,-0.17768 -40.32,-0.45673 -75.52,-0.62012 -60.213039,-0.27949 -79.543019,-0.5312 -99.039969,-1.28965 -80.80601,-3.14342 -124.2959,-12.73139 -149.82985,-33.03206 -17.82865,-14.17459 -27.53188,-35.25102 -31.1238,-67.60409 -2.6771,-24.11317 -2.66945,-69.01231 0.0157,-92.32 4.44107,-38.54901 18.53879,-63.31335 45.72022,-80.31307 24.18456,-15.12544 59.73032,-24.15598 107.69729,-27.36092 18.24562,-1.21909 19.23528,-1.22878 139.040009,-1.36085 131.18394,-0.14462 139.301511,-0.0598 162.240001,1.69477 57.11476,4.36878 95.85869,18.20169 116.90782,41.74007 14.40508,16.10863 22.09571,36.11071 24.98422,64.97993 1.02672,10.26164 1.30339,16.51518 1.52464,34.46007 l 0.20611,16.72 h -75.57139 -75.5714 l -0.006,-1.52 c -0.0186,-4.89871 -0.72188,-14.92915 -1.27286,-18.15187 -1.36234,-7.96884 -3.616,-12.74275 -8.16138,-17.28813 -5.26761,-5.26762 -11.871421,-8.26281 -23.200001,-10.52248 -7.87577,-1.57094 -15.50077,-2.28557 -29.6,-2.77415 -14.32537,-0.49642 -187.014449,-0.23512 -191.199999,0.28931 -12.87107,1.61266 -21.6617,4.24073 -28.8532,8.626 -4.06177,2.47682 -9.45417,7.83924 -11.44974,11.3861 -1.63294,2.90232 -2.937,6.39804 -3.7316,10.00305 -0.66027,2.99555 -0.7469,13.01822 -0.15034,17.39217 1.46205,10.7196 5.32805,17.1503 13.06292,21.72883 9.11773,5.3971 25.01487,8.46191 51.60196,9.94835 16.19977,0.9057 26.550009,1.03404 103.359999,1.28161 86.4024,0.2785 99.48416,0.49118 128.960001,2.09665 67.39351,3.67073 106.76948,13.22611 131.62126,31.94055 22.88211,17.23124 34.668,42.79176 38.75244,84.04401 1.15876,11.7032 1.30362,15.85974 1.30496,37.44 0,22.1984 -0.15353,26.36733 -1.46246,39.36 -6.39728,63.49943 -32.71427,91.78763 -97.18042,104.45953 -26.28451,5.1667 -58.56986,7.8097 -107.755781,8.8213 -12.66563,0.2605 -233.767769,0.355 -244.319999,0.1044 z M 305.16953,820.29147 v -246.4 h 75.52 75.52 v 246.4 246.40003 h -75.52 -75.52 z m 832.31997,0 v -246.4 h 75.5195 75.5194 l 0.081,87.76 0.081,87.76 h 159.6801 159.68 l 0.081,-87.76 0.081,-87.76 h 75.5194 75.5195 v 246.4 246.40003 h -75.5195 -75.5195 l -0.081,-93.20003 -0.081,-93.2 h -159.68 -159.6801 l -0.081,93.2 -0.081,93.20003 h -75.5195 -75.5195 z m 833.9201,61.28 v -185.12 h -97.92 -97.92 v -61.28 -61.28 h 270.72 270.72 v 61.27948 61.27948 l -97.2,0.0805 -97.2,0.0805 -0.08,185.04 -0.08,185.03997 h -75.5197 -75.5197 z M 2131.19,1066.2915 c 0.093,-0.22 23.4108,-43.312 51.8175,-95.76003 l 51.6485,-95.36 38.4052,-0.0813 38.4052,-0.0813 52.0959,94.80129 c 28.6528,52.14074 52.3761,95.26994 52.7186,95.84274 l 0.6227,1.0416 -32.8608,-0.082 -32.8609,-0.082 -9.0523,-16.8 -9.0523,-16.8 h -59.5794 -59.5793 l -8.5345,16.8725 -8.5345,16.8725 -32.9143,0.01 c -26.2104,0.01 -32.8798,-0.074 -32.7453,-0.3925 z m 179.6862,-75.06662 c -0.8027,-2.00611 -37.8683,-71.37437 -38.0389,-71.18989 -0.4436,0.47949 -36.4677,70.6887 -36.4677,71.07363 0,0.29495 8.5668,0.38285 37.3066,0.38285 20.5187,0 37.2587,-0.11997 37.2,-0.26659 z m 110.7734,-20.37341 v -95.84 l 45.68,0.006 45.68,0.006 55.1581,69.59402 c 30.337,38.27674 55.285,69.59401 55.44,69.59401 0.1616,0 0.2819,-29.69391 0.2819,-69.59996 v -69.6 h 29.28 29.28 v 95.84 95.83996 h -45.5486 -45.5486 l -55.1714,-69.59865 c -30.3443,-38.27926 -55.2794,-69.59926 -55.4114,-69.6 -0.132,0 -0.24,31.31869 -0.24,69.59869 v 69.59996 h -29.44 -29.44 v -95.83996 z m 272.32,-0.008 v -95.84812 l 95.92,0.10262 c 88.185,0.0943 96.32,0.14703 100.88,0.65341 17.513,1.94476 28.9462,5.43663 38.2534,11.68308 10.1546,6.81493 16.7972,17.64578 19.6612,32.05711 1.7702,8.90713 1.7654,8.76697 1.7654,51.68 0,43.36633 0.022,42.78363 -1.9229,51.85503 -6.1123,28.5128 -25.4845,41.217 -66.0771,43.3335 -3.9306,0.2049 -39.9615,0.3265 -97.36,0.3284 h -91.12 v -95.84811 z m 175.04,45.82523 c 14.3382,-2.5149 20.5075,-9.2622 22.455,-24.56011 0.6016,-4.72461 0.6016,-39.38944 0,-44.11405 -1.9292,-15.15312 -7.7363,-21.68857 -21.815,-24.55078 -2.5046,-0.50922 -7.2459,-0.56157 -59.92,-0.66179 l -57.2,-0.10884 v 47.15588 c 0,25.93574 0.1005,47.25649 0.2234,47.37929 0.1229,0.1229 25.6469,0.1717 56.72,0.1085 50.9662,-0.1037 56.7942,-0.1671 59.5366,-0.6481 z"
       style="fill:#000000;stroke-width:0.32" />
  </g>
</svg>
