<svg width="16" height="16" viewBox="0 0 16 16" fill="none" xmlns="http://www.w3.org/2000/svg">
<g clip-path="url(#clip0_514_147)">
<path d="M8 0C3.58133 0 0 3.58133 0 8C0 12.4187 3.58133 16 8 16C12.4187 16 16 12.4187 16 8C16 3.58133 12.4187 0 8 0ZM12.1533 10.8293C12.1534 10.862 12.147 10.8943 12.1346 10.9245C12.1221 10.9547 12.1038 10.9821 12.0807 11.0051C12.0575 11.0282 12.0301 11.0464 11.9999 11.0588C11.9697 11.0712 11.9373 11.0775 11.9047 11.0773H10.86C10.8274 11.0774 10.7951 11.0711 10.765 11.0586C10.7349 11.0462 10.7075 11.0279 10.6844 11.0049C10.6614 10.9818 10.6431 10.9545 10.6307 10.9243C10.6183 10.8942 10.6119 10.8619 10.612 10.8293V7.61067C10.612 7.584 10.5813 7.57067 10.5587 7.58867L8.34533 9.802C8.25274 9.89348 8.12783 9.94478 7.99767 9.94478C7.86751 9.94478 7.74259 9.89348 7.65 9.802L5.43667 7.58867C5.41867 7.57067 5.38333 7.584 5.38333 7.61067V10.8293C5.38342 10.8619 5.37707 10.8942 5.36463 10.9243C5.3522 10.9545 5.33394 10.9818 5.31089 11.0049C5.28785 11.0279 5.26047 11.0462 5.23034 11.0586C5.20021 11.0711 5.16793 11.0774 5.13533 11.0773H4.09067C4.05807 11.0774 4.02579 11.0711 3.99566 11.0586C3.96553 11.0462 3.93815 11.0279 3.91511 11.0049C3.89206 10.9818 3.8738 10.9545 3.86137 10.9243C3.84893 10.8942 3.84258 10.8619 3.84267 10.8293V5.17133C3.84267 5.034 3.95333 4.92333 4.09067 4.92333H4.808C4.93941 4.92433 5.06514 4.97702 5.158 5.07L7.91133 7.82333C7.92253 7.83503 7.93599 7.84434 7.95088 7.8507C7.96578 7.85706 7.9818 7.86033 7.998 7.86033C8.0142 7.86033 8.03022 7.85706 8.04512 7.8507C8.06001 7.84434 8.07347 7.83503 8.08467 7.82333L10.838 5.07C10.9313 4.97667 11.0547 4.92333 11.188 4.92333H11.9047C12.042 4.92333 12.1527 5.034 12.1527 5.17133L12.1533 10.8293Z" fill="#E23939"/>
</g>
<defs>
<clipPath id="clip0_514_147">
<rect width="16" height="16" fill="white"/>
</clipPath>
</defs>
</svg>
