<svg width="72" height="72" viewBox="0 0 72 72" fill="none" xmlns="http://www.w3.org/2000/svg">
<path d="M36 66C52.569 66 66 52.569 66 36C66 19.431 52.569 6 36 6C19.431 6 6 19.431 6 36C6 52.569 19.431 66 36 66Z" stroke="#FA8801" stroke-width="4" stroke-linejoin="round"/>
<path d="M36 27C37.1935 27 38.3381 26.5259 39.182 25.682C40.0259 24.8381 40.5 23.6935 40.5 22.5C40.5 21.3065 40.0259 20.1619 39.182 19.318C38.3381 18.4741 37.1935 18 36 18C34.8065 18 33.6619 18.4741 32.818 19.318C31.9741 20.1619 31.5 21.3065 31.5 22.5C31.5 23.6935 31.9741 24.8381 32.818 25.682C33.6619 26.5259 34.8065 27 36 27ZM36 54C37.1935 54 38.3381 53.5259 39.182 52.682C40.0259 51.8381 40.5 50.6935 40.5 49.5C40.5 48.3065 40.0259 47.1619 39.182 46.318C38.3381 45.4741 37.1935 45 36 45C34.8065 45 33.6619 45.4741 32.818 46.318C31.9741 47.1619 31.5 48.3065 31.5 49.5C31.5 50.6935 31.9741 51.8381 32.818 52.682C33.6619 53.5259 34.8065 54 36 54ZM22.5 40.5C23.6935 40.5 24.8381 40.0259 25.682 39.182C26.5259 38.3381 27 37.1935 27 36C27 34.8065 26.5259 33.6619 25.682 32.818C24.8381 31.9741 23.6935 31.5 22.5 31.5C21.3065 31.5 20.1619 31.9741 19.318 32.818C18.4741 33.6619 18 34.8065 18 36C18 37.1935 18.4741 38.3381 19.318 39.182C20.1619 40.0259 21.3065 40.5 22.5 40.5ZM49.5 40.5C50.6935 40.5 51.8381 40.0259 52.682 39.182C53.5259 38.3381 54 37.1935 54 36C54 34.8065 53.5259 33.6619 52.682 32.818C51.8381 31.9741 50.6935 31.5 49.5 31.5C48.3065 31.5 47.1619 31.9741 46.318 32.818C45.4741 33.6619 45 34.8065 45 36C45 37.1935 45.4741 38.3381 46.318 39.182C47.1619 40.0259 48.3065 40.5 49.5 40.5Z" stroke="#FA8801" stroke-width="4" stroke-linejoin="round"/>
<path d="M36 66H66" stroke="#FA8801" stroke-width="4" stroke-linecap="round"/>
</svg>
