<svg width="143" height="150" viewBox="0 0 143 150" fill="none" xmlns="http://www.w3.org/2000/svg">
<path d="M117.955 85.3976C117.955 92.5188 116.591 98.9203 113.864 104.602C111.098 110.246 107.311 114.754 102.5 118.125C97.6894 121.496 92.5379 120.773 86.3636 121V106C91.3636 105.583 95.1326 103.845 98.3523 99.8294C101.572 95.8142 103.182 91.0036 103.182 85.3976C103.182 80.9279 102.159 76.9695 100.114 73.5226C98.0303 70.0377 95.1705 67.3104 91.5341 65.3407C87.8977 63.3332 83.75 62.3294 79.0909 62.3294C74.3561 62.3294 70.1326 63.3521 66.4205 65.3976C62.7083 67.443 59.7917 70.265 57.6705 73.8635C55.5492 77.4241 54.4697 81.515 54.4318 86.1362C54.4318 89.6589 55.0379 93.2006 56.25 96.7612C57.4621 100.322 59.053 103.201 61.0227 105.398L58.6364 121.477H0L0 50.9657H15.0568V104.034H47.6136V103.352C45.4167 101.079 43.5795 98.068 42.1023 94.318C40.625 90.5301 39.8864 86.4771 39.8864 82.1589C39.8864 75.0756 41.572 68.7688 44.9432 63.2385C48.3144 57.6703 52.9167 53.2953 58.75 50.1135C64.5455 46.8938 71.2121 45.3029 78.75 45.3407C86.2879 45.3029 93.0114 47.0074 98.9205 50.4544C104.83 53.8635 109.489 58.5983 112.898 64.6589C116.269 70.6817 117.955 77.5945 117.955 85.3976Z" fill="#FA8801"/>
<path fill-rule="evenodd" clip-rule="evenodd" d="M40.6157 23.1901C39.5717 29.2363 41.5638 38.1945 51.1273 49.529L43.4844 55.9777C32.7979 43.3122 29.04 31.4579 30.7616 21.4884C32.4948 11.4516 39.5919 4.51439 47.9733 1.59418C56.3086 -1.30998 66.2413 -0.378377 74.1301 5.5024C78.6774 8.89219 82.3138 13.7432 84.6047 20.0213C87.9139 16.1419 92.0561 13.2898 96.609 11.4641C105.811 7.77395 116.545 8.31653 125.302 12.5678C134.183 16.8794 141.238 25.1413 142.338 36.7746C143.421 48.2241 138.648 61.9593 126.197 77.3927L118.414 71.1139C129.964 56.7973 133.128 45.595 132.383 37.7163C131.655 30.0215 127.116 24.5647 120.935 21.5638C114.629 18.5026 106.832 18.1389 100.331 20.7457C94.0248 23.2744 88.7975 28.6336 87.2315 37.6125L77.3058 36.7534C77.3058 24.3145 73.048 17.1685 68.1534 13.5199C63.1516 9.79123 56.7406 9.12908 51.2634 11.0374C45.8323 12.9297 41.6482 17.2112 40.6157 23.1901Z" fill="#CAC8C8"/>
<path d="M92.5818 149V135.909H97.0478V138.398H97.1841C97.4568 137.58 97.9228 136.932 98.5818 136.455C99.2409 135.977 100.025 135.739 100.934 135.739C101.855 135.739 102.647 135.983 103.312 136.472C103.977 136.955 104.377 137.597 104.514 138.398H104.65C104.872 137.597 105.343 136.955 106.065 136.472C106.786 135.983 107.633 135.739 108.605 135.739C109.86 135.739 110.877 136.142 111.656 136.949C112.44 137.756 112.832 138.83 112.832 140.171V149H108.127V141.364C108.127 140.79 107.982 140.341 107.693 140.017C107.403 139.688 107.014 139.523 106.525 139.523C106.042 139.523 105.659 139.688 105.374 140.017C105.096 140.341 104.957 140.79 104.957 141.364V149H100.457V141.364C100.457 140.79 100.312 140.341 100.022 140.017C99.7324 139.688 99.3432 139.523 98.8546 139.523C98.5307 139.523 98.2523 139.597 98.0193 139.744C97.7864 139.892 97.6046 140.105 97.4739 140.384C97.3489 140.656 97.2864 140.983 97.2864 141.364V149H92.5818Z" fill="#D9D9D9"/>
<path d="M60.4115 149V135.909H64.8774V138.398H65.0138C65.2865 137.58 65.7524 136.932 66.4115 136.455C67.0706 135.977 67.8547 135.739 68.7638 135.739C69.6842 135.739 70.4768 135.983 71.1416 136.472C71.8064 136.955 72.207 137.597 72.3433 138.398H72.4797C72.7013 137.597 73.1729 136.955 73.8945 136.472C74.616 135.983 75.4626 135.739 76.4342 135.739C77.6899 135.739 78.707 136.142 79.4854 136.949C80.2695 137.756 80.6615 138.83 80.6615 140.171V149H75.957V141.364C75.957 140.79 75.8121 140.341 75.5223 140.017C75.2325 139.688 74.8433 139.523 74.3547 139.523C73.8717 139.523 73.4882 139.688 73.2041 140.017C72.9257 140.341 72.7865 140.79 72.7865 141.364V149H68.2865V141.364C68.2865 140.79 68.1416 140.341 67.8518 140.017C67.5621 139.688 67.1729 139.523 66.6842 139.523C66.3604 139.523 66.082 139.597 65.849 139.744C65.616 139.892 65.4342 140.105 65.3035 140.384C65.1785 140.656 65.116 140.983 65.116 141.364V149H60.4115Z" fill="#D9D9D9"/>
<path d="M41.7114 149.239C40.3705 149.239 39.1801 149.003 38.1404 148.531C37.1063 148.054 36.2909 147.398 35.6943 146.562C35.1034 145.727 34.8023 144.767 34.7909 143.682H39.3932C39.4102 144.284 39.6432 144.764 40.0921 145.122C40.5466 145.48 41.0864 145.659 41.7114 145.659C42.1943 145.659 42.6205 145.557 42.9898 145.352C43.3591 145.142 43.6489 144.847 43.8591 144.466C44.0693 144.085 44.1716 143.642 44.1659 143.136C44.1716 142.625 44.0693 142.182 43.8591 141.807C43.6489 141.426 43.3591 141.133 42.9898 140.929C42.6205 140.719 42.1943 140.614 41.7114 140.614C41.2114 140.614 40.7483 140.736 40.3222 140.98C39.9017 141.219 39.5921 141.551 39.3932 141.977L35.2341 141.159L35.9159 131.545H47.6432V135.33H39.8023L39.4614 139.182H39.5637C39.8364 138.653 40.308 138.216 40.9784 137.869C41.6489 137.517 42.4273 137.341 43.3137 137.341C44.3534 137.341 45.2796 137.582 46.0921 138.065C46.9102 138.548 47.5551 139.216 48.0267 140.068C48.504 140.915 48.7398 141.892 48.7341 143C48.7398 144.216 48.45 145.295 47.8648 146.239C47.2852 147.176 46.4699 147.912 45.4188 148.446C44.3676 148.974 43.1318 149.239 41.7114 149.239Z" fill="#D9D9D9"/>
<path d="M15.7456 149.239C14.3706 149.239 13.149 149.003 12.0808 148.531C11.0183 148.054 10.1831 147.398 9.57515 146.563C8.96719 145.727 8.66038 144.767 8.65469 143.682H13.4274C13.4331 144.017 13.5354 144.318 13.7342 144.585C13.9388 144.847 14.2172 145.051 14.5695 145.199C14.9217 145.347 15.3251 145.421 15.7797 145.421C16.2172 145.421 16.6036 145.344 16.9388 145.19C17.274 145.031 17.5354 144.813 17.7229 144.534C17.9104 144.256 18.0013 143.938 17.9956 143.58C18.0013 143.227 17.8933 142.915 17.6717 142.642C17.4558 142.369 17.1519 142.156 16.7598 142.003C16.3678 141.849 15.9161 141.773 15.4047 141.773H13.632V138.5H15.4047C15.8763 138.5 16.2911 138.423 16.649 138.27C17.0126 138.117 17.2939 137.903 17.4928 137.631C17.6973 137.358 17.7967 137.046 17.7911 136.693C17.7967 136.352 17.7144 136.051 17.5439 135.79C17.3734 135.528 17.1348 135.324 16.828 135.176C16.5269 135.028 16.1774 134.955 15.7797 134.955C15.3479 134.955 14.9615 135.031 14.6206 135.185C14.2854 135.338 14.0212 135.551 13.828 135.824C13.6348 136.097 13.5354 136.409 13.5297 136.761H8.9956C9.00128 135.693 9.2939 134.75 9.87344 133.932C10.4587 133.114 11.2598 132.472 12.2769 132.006C13.2939 131.54 14.4615 131.307 15.7797 131.307C17.0695 131.307 18.2087 131.526 19.1973 131.963C20.1916 132.401 20.9672 133.003 21.524 133.77C22.0865 134.531 22.3649 135.403 22.3592 136.386C22.3706 137.364 22.0354 138.165 21.3536 138.79C20.6774 139.415 19.8195 139.784 18.7797 139.898V140.034C20.1888 140.188 21.2484 140.619 21.9587 141.33C22.6689 142.034 23.0183 142.921 23.007 143.989C23.0126 145.011 22.7058 145.918 22.0865 146.707C21.4729 147.497 20.6178 148.117 19.5212 148.565C18.4303 149.014 17.1717 149.239 15.7456 149.239Z" fill="#D9D9D9"/>
</svg>
